<svg clip-rule="evenodd" fill-rule="evenodd" stroke-linejoin="round" stroke-miterlimit="2" viewBox="0 0 80 80" xmlns="http://www.w3.org/2000/svg"><path d="m0 0h80v80h-80z" fill="none"/><path d="m23.764 20.381c.044-.236.25-.408.491-.408h10.305c.244 0 .453.177.493.418.676 4.049 6.058 36.282 6.85 41.027.024.145-.017.293-.112.405s-.234.177-.381.177c-1.6 0-5.994 0-7.402 0-.251 0-.464-.187-.496-.437-.202-1.581-.892-6.978-1.04-8.132-.015-.125-.122-.218-.248-.218-1.084 0-5.853 0-6.922 0-.122 0-.227.089-.246.21-.184 1.141-1.063 6.592-1.315 8.157-.039.242-.248.42-.494.42-1.288 0-5.149 0-6.645 0-.149 0-.29-.066-.385-.18-.095-.115-.134-.266-.107-.412.892-4.78 6.906-37.02 7.654-41.027zm2.487 26.027c-.011.072.01.145.057.2.048.055.117.086.189.087.947.003 3.948.012 4.885.015.072.001.14-.03.187-.083.048-.054.07-.125.062-.196-.286-2.391-2.304-19.251-2.304-19.251h-.218s-2.5 16.819-2.858 19.228z"/></svg>