<svg clip-rule="evenodd" fill-rule="evenodd" stroke-linejoin="round" stroke-miterlimit="2" viewBox="0 0 16 16" xmlns="http://www.w3.org/2000/svg">
    <path fill="#508aff" d="m6.24 4.545c1.204-.595 2.084-1.048 3.768-1.635 2.404-.839 3.302-1.275 4.949-1.405.381-.03 1.05.109 1.008.783-.101 1.638-2.569 6.789-5.23 9.427-1.792 1.776-4.793 4.349-8.035 2.576-.972-.532-1.622-2.083-1.648-3.075-.032-1.2.364-2.174 1.351-3.459-.232-.424-.741-1.351-.948-1.746-.125-.239-.198-.344.064-.666-.432-.777-.928-1.693-1.388-2.596-.324-.636.662-1.429 1.177-1.075.388.265 1.427.996 2.402 1.683.232-.154.374-.182.6-.047.445.267 1.161.674 1.652.95.158.089.248.178.278.285zm1.147 7.266c.148-.077.312-.115.467-.121.175-.008.336.025.444.088.32.185.395.583.219.853-.248.379-.573.485-.826.494-.558.02-.773-.396-.782-.57-.016-.351.17-.585.478-.744zm-3.11.129c-.232.173-.268.335-.234.565.068.461.502.687.881.601.505-.116.71-.506.661-.795-.072-.433-.32-.495-.512-.54-.303-.073-.536-.025-.796.169zm-.343-2.788c.138-.442.527-.623.903-.637.61-.024.971.565.857 1.125-.079.387-.41.762-.996.725-.63-.039-.901-.776-.764-1.213zm4.68.086c.066.326-.059.705-.391.882-.55.294-.971-.013-1.123-.433-.088-.244-.127-.778.474-1.025.598-.245.981.285 1.04.576zm-5.794-4.28c.017.5.026 1.401.115 1.865.637-.57 1.221-1.211 1.87-1.838-.757-.063-1.349.003-1.985-.027zm5.685-.095c.419-.185.959.051 1.02.493.039.279-.119.599-.444.708-.243.081-.704.04-.904-.393-.202-.436.125-.718.328-.808zm2.959-.947c.301-.132.57-.015.7.108.38.359.307.768.005.943-.284.165-.581.111-.819-.149-.226-.245-.309-.716.114-.902zm1.848-.587c-.004-.196.172-.477.591-.37.285.072.426.329.383.572-.05.285-.362.433-.616.317-.231-.104-.353-.308-.358-.519z" />
</svg>
