<svg clip-rule="evenodd" fill-rule="evenodd" stroke-linejoin="round" stroke-miterlimit="2" viewBox="0 0 82 112" xmlns="http://www.w3.org/2000/svg"><path d="m0 0h82v112h-82z" fill="none"/><path d="m70.518 25.702c-3.711-3.711-8.936-4.394-15.674-4.394h-29.834c-6.543 0-11.768.683-15.479 4.394-3.711 3.76-4.394 8.887-4.394 15.43v29.638c0 6.739.634 11.915 4.345 15.626 3.76 3.71 8.936 4.394 15.674 4.394h29.688c6.738 0 11.963-.684 15.674-4.394 3.71-3.76 4.345-8.887 4.345-15.626v-29.443c0-6.738-.635-11.914-4.345-15.625zm-1.075 14.6v31.494c0 4.248-.586 8.252-2.881 10.596-2.343 2.343-6.445 2.978-10.693 2.978h-31.738c-4.248 0-8.301-.635-10.645-2.978-2.343-2.344-2.929-6.348-2.929-10.596v-31.348c0-4.346.586-8.447 2.88-10.791 2.344-2.344 6.495-2.93 10.84-2.93h31.592c4.248 0 8.35.635 10.693 2.979 2.295 2.295 2.881 6.348 2.881 10.596zm-29.492 33.838c1.807 0 2.881-1.221 2.881-3.174v-12.158h12.695c1.856 0 3.174-1.026 3.174-2.784 0-1.806-1.221-2.88-3.174-2.88h-12.695v-12.696c0-1.953-1.074-3.174-2.881-3.174-1.758 0-2.783 1.27-2.783 3.174v12.696h-12.647c-1.953 0-3.222 1.074-3.222 2.88 0 1.758 1.367 2.784 3.222 2.784h12.647v12.158c0 1.855 1.025 3.174 2.783 3.174z" fill-rule="nonzero"/></svg>