<?xml version="1.0" encoding="UTF-8" standalone="no"?>
<!DOCTYPE svg PUBLIC "-//W3C//DTD SVG 1.1//EN" "http://www.w3.org/Graphics/SVG/1.1/DTD/svg11.dtd">
<svg width="100%" height="100%" viewBox="0 0 82 112" version="1.1" xmlns="http://www.w3.org/2000/svg" xmlns:xlink="http://www.w3.org/1999/xlink" xml:space="preserve" xmlns:serif="http://www.serif.com/" style="fill-rule:evenodd;clip-rule:evenodd;stroke-linejoin:round;stroke-miterlimit:2;">
    <rect id="plus.app" x="0" y="0" width="82" height="112" style="fill:none;"/>
    <path id="symbol" d="M70.518,25.702c-3.711,-3.711 -8.936,-4.394 -15.674,-4.394l-29.834,0c-6.543,0 -11.768,0.683 -15.479,4.394c-3.711,3.76 -4.394,8.887 -4.394,15.43l0,29.638c0,6.739 0.634,11.915 4.345,15.626c3.76,3.71 8.936,4.394 15.674,4.394l29.688,0c6.738,0 11.963,-0.684 15.674,-4.394c3.71,-3.76 4.345,-8.887 4.345,-15.626l0,-29.443c0,-6.738 -0.635,-11.914 -4.345,-15.625Zm-1.075,14.6l0,31.494c0,4.248 -0.586,8.252 -2.881,10.596c-2.343,2.343 -6.445,2.978 -10.693,2.978l-31.738,0c-4.248,0 -8.301,-0.635 -10.645,-2.978c-2.343,-2.344 -2.929,-6.348 -2.929,-10.596l0,-31.348c0,-4.346 0.586,-8.447 2.88,-10.791c2.344,-2.344 6.495,-2.93 10.84,-2.93l31.592,0c4.248,0 8.35,0.635 10.693,2.979c2.295,2.295 2.881,6.348 2.881,10.596Zm-29.492,33.838c1.807,0 2.881,-1.221 2.881,-3.174l0,-12.158l12.695,0c1.856,0 3.174,-1.026 3.174,-2.784c0,-1.806 -1.221,-2.88 -3.174,-2.88l-12.695,0l0,-12.696c0,-1.953 -1.074,-3.174 -2.881,-3.174c-1.758,0 -2.783,1.27 -2.783,3.174l0,12.696l-12.647,0c-1.953,0 -3.222,1.074 -3.222,2.88c0,1.758 1.367,2.784 3.222,2.784l12.647,0l0,12.158c0,1.855 1.025,3.174 2.783,3.174Z" style="fill-rule:nonzero;"/>
</svg>
