<?xml version="1.0" encoding="UTF-8" standalone="no"?>
<!DOCTYPE svg PUBLIC "-//W3C//DTD SVG 1.1//EN" "http://www.w3.org/Graphics/SVG/1.1/DTD/svg11.dtd">
<svg width="100%" height="100%" viewBox="0 0 80 112" version="1.1" xmlns="http://www.w3.org/2000/svg" xmlns:xlink="http://www.w3.org/1999/xlink" xml:space="preserve" xmlns:serif="http://www.serif.com/" style="fill-rule:evenodd;clip-rule:evenodd;stroke-linejoin:round;stroke-miterlimit:2;">
    <rect id="square.and.arrow.up" x="0" y="0" width="80" height="112" style="fill:none;"/>
    <path id="symbol" d="M40.024,66.328c1.416,0 2.686,-1.172 2.686,-2.588l0,-40.283l-0.244,-5.616l3.027,3.125l6.152,6.446c0.489,0.537 1.172,0.83 1.856,0.83c1.367,0 2.441,-1.026 2.441,-2.393c0,-0.732 -0.293,-1.269 -0.781,-1.758l-13.184,-12.842c-0.683,-0.683 -1.269,-0.878 -1.953,-0.878c-0.683,0 -1.269,0.195 -1.953,0.878l-13.232,12.842c-0.488,0.489 -0.781,1.026 -0.781,1.758c0,1.367 1.025,2.393 2.441,2.393c0.635,0 1.367,-0.293 1.855,-0.83l6.153,-6.446l3.027,-3.174l-0.195,5.665l0,40.283c0,1.416 1.221,2.588 2.685,2.588Zm-22.021,29.687l43.945,0c7.764,0 11.67,-3.857 11.67,-11.475l0,-38.671c0,-7.569 -3.906,-11.475 -11.67,-11.475l-10.742,0l0,5.42l10.645,0c4.003,0 6.347,2.148 6.347,6.348l0,38.085c0,4.2 -2.344,6.348 -6.347,6.348l-43.75,0c-4.053,0 -6.299,-2.148 -6.299,-6.348l0,-38.085c0,-4.2 2.246,-6.348 6.299,-6.348l10.742,0l0,-5.42l-10.84,0c-7.715,0 -11.621,3.857 -11.621,11.475l0,38.671c0,7.618 3.906,11.475 11.621,11.475Z" style="fill-rule:nonzero;"/>
</svg>
