<svg clip-rule="evenodd" fill-rule="evenodd" stroke-linejoin="round" stroke-miterlimit="2" viewBox="0 0 80 112" xmlns="http://www.w3.org/2000/svg"><path d="m0 0h80v112h-80z" fill="none"/><path d="m40.024 66.328c1.416 0 2.686-1.172 2.686-2.588v-40.283l-.244-5.616 3.027 3.125 6.152 6.446c.489.537 1.172.83 1.856.83 1.367 0 2.441-1.026 2.441-2.393 0-.732-.293-1.269-.781-1.758l-13.184-12.842c-.683-.683-1.269-.878-1.953-.878-.683 0-1.269.195-1.953.878l-13.232 12.842c-.488.489-.781 1.026-.781 1.758 0 1.367 1.025 2.393 2.441 2.393.635 0 1.367-.293 1.855-.83l6.153-6.446 3.027-3.174-.195 5.665v40.283c0 1.416 1.221 2.588 2.685 2.588zm-22.021 29.687h43.945c7.764 0 11.67-3.857 11.67-11.475v-38.671c0-7.569-3.906-11.475-11.67-11.475h-10.742v5.42h10.645c4.003 0 6.347 2.148 6.347 6.348v38.085c0 4.2-2.344 6.348-6.347 6.348h-43.75c-4.053 0-6.299-2.148-6.299-6.348v-38.085c0-4.2 2.246-6.348 6.299-6.348h10.742v-5.42h-10.84c-7.715 0-11.621 3.857-11.621 11.475v38.671c0 7.618 3.906 11.475 11.621 11.475z" fill-rule="nonzero"/></svg>